<svg xmlns="http://www.w3.org/2000/svg" viewBox="0 0 217.99 49.54"><defs><style>.cls-1{fill:#04678c;}</style></defs><title>Ресурс 1</title><g id="Слой_2" data-name="Слой 2"><g id="Слой_6" data-name="Слой 6"><path class="cls-1" d="M69.21,45a4.32,4.32,0,0,1-4.6,4.35H61V40.69h3.62A4.28,4.28,0,0,1,69.21,45Zm-1.7,0a2.79,2.79,0,0,0-2.86-2.9H62.72v5.77h2A2.74,2.74,0,0,0,67.5,45.05Z"/><path class="cls-1" d="M79.61,46.06a3.51,3.51,0,1,1-3.5-3.37A3.27,3.27,0,0,1,79.61,46.06Zm-5.38,0a1.88,1.88,0,1,0,1.89-2A1.86,1.86,0,0,0,74.23,46.08Z"/><path class="cls-1" d="M86.46,44.11a2,2,0,0,0,0,4,2.14,2.14,0,0,0,1.79-.78l1,.83a3.34,3.34,0,0,1-2.88,1.34,3.38,3.38,0,0,1,0-6.77,3.39,3.39,0,0,1,2.79,1.22l-1,.93A2.28,2.28,0,0,0,86.46,44.11Z"/><path class="cls-1" d="M99,46.63H94.05A1.86,1.86,0,0,0,96,48.15a2.47,2.47,0,0,0,1.79-.75l.87.91a3.69,3.69,0,0,1-2.8,1.14,3.38,3.38,0,1,1,0-6.77C98.12,42.69,99.13,44.22,99,46.63ZM97.5,45.55a1.58,1.58,0,0,0-1.7-1.6A1.74,1.74,0,0,0,94,45.55Z"/><path class="cls-1" d="M109.44,45.24v4.15h-1.63V45.71a1.38,1.38,0,0,0-1.48-1.5,1.74,1.74,0,0,0-1.74,1.92v3.27H103V42.74h1.62V44A2.53,2.53,0,0,1,107,42.68,2.33,2.33,0,0,1,109.44,45.24Z"/><path class="cls-1" d="M120.28,40.16v9.23h-1.62V48.32a2.53,2.53,0,0,1-2.24,1.14A3.13,3.13,0,0,1,113.26,46a3.09,3.09,0,0,1,3.13-3.37,2.56,2.56,0,0,1,2.28,1.16V40.16Zm-1.62,5.92a1.87,1.87,0,0,0-1.89-2,2,2,0,0,0,0,4.05A1.87,1.87,0,0,0,118.67,46.08Z"/><path class="cls-1" d="M131.37,46.06a3.51,3.51,0,1,1-3.5-3.37A3.27,3.27,0,0,1,131.37,46.06Zm-5.38,0a1.88,1.88,0,1,0,1.89-2A1.86,1.86,0,0,0,126,46.08Z"/><path class="cls-1" d="M148.14,40.16v9.23h-1.62V48.32a2.53,2.53,0,0,1-2.24,1.14A3.13,3.13,0,0,1,141.11,46a3.09,3.09,0,0,1,3.13-3.37,2.56,2.56,0,0,1,2.28,1.16V40.16Zm-1.62,5.92a1.87,1.87,0,0,0-1.89-2,2,2,0,0,0,0,4.05A1.87,1.87,0,0,0,146.52,46.08Z"/><path class="cls-1" d="M154.5,40.84a.87.87,0,1,1-.87-.9A.85.85,0,0,1,154.5,40.84Zm-.06,1.9v6.65h-1.62V42.74Z"/><path class="cls-1" d="M161,43.93c-.52,0-.9.17-.9.58,0,1.12,3.52.54,3.52,2.92,0,1.36-1.21,2-2.62,2a4.27,4.27,0,0,1-2.75-.93l.56-1.13a3.71,3.71,0,0,0,2.25.82c.56,0,1-.19,1-.62,0-1.23-3.47-.56-3.46-2.92,0-1.37,1.17-2,2.51-2a4.48,4.48,0,0,1,2.44.71L163,44.54A4.07,4.07,0,0,0,161,43.93Z"/><path class="cls-1" d="M170.49,44.11a2,2,0,0,0,0,4,2.14,2.14,0,0,0,1.79-.78l1,.83a3.34,3.34,0,0,1-2.88,1.34,3.38,3.38,0,0,1,0-6.77,3.39,3.39,0,0,1,2.79,1.22l-1,.93A2.28,2.28,0,0,0,170.49,44.11Z"/><path class="cls-1" d="M179,40.84a.87.87,0,1,1-.87-.9A.85.85,0,0,1,179,40.84Zm-.06,1.9v6.65h-1.62V42.74Z"/><path class="cls-1" d="M194.64,45.24v4.15H193V45.71a1.38,1.38,0,0,0-1.46-1.52,1.74,1.74,0,0,0-1.68,1.92v3.28h-1.63V45.71a1.37,1.37,0,0,0-1.44-1.52,1.74,1.74,0,0,0-1.69,1.92v3.28H183.5V42.74h1.62V44a2.46,2.46,0,0,1,2.34-1.29,2.21,2.21,0,0,1,2.29,1.59,2.47,2.47,0,0,1,2.47-1.59A2.31,2.31,0,0,1,194.64,45.24Z"/><path class="cls-1" d="M205.19,42.74v6.65h-1.63V48.16a2.4,2.4,0,0,1-2.31,1.29,2.3,2.3,0,0,1-2.41-2.55V42.74h1.63v3.69a1.34,1.34,0,0,0,1.43,1.49,1.72,1.72,0,0,0,1.67-1.9V42.74Z"/><path class="cls-1" d="M211.81,43.93c-.52,0-.9.17-.9.58,0,1.12,3.52.54,3.52,2.92,0,1.36-1.21,2-2.62,2a4.27,4.27,0,0,1-2.75-.93l.56-1.13a3.71,3.71,0,0,0,2.25.82c.56,0,1-.19,1-.62,0-1.23-3.47-.56-3.46-2.92,0-1.37,1.17-2,2.51-2a4.48,4.48,0,0,1,2.44.71l-.58,1.17A4.07,4.07,0,0,0,211.81,43.93Z"/><path class="cls-1" d="M68.07,28.24c3.71,0,6-2.31,6-6.22V7.75H78.8V22c0,6.43-4.09,10.42-10.73,10.42S57.2,28.45,57.2,22V7.75h4.68V22C61.88,25.9,64.36,28.24,68.07,28.24Z"/><path class="cls-1" d="M88.48,7.75,101.1,24.5V7.75h4.54V32.22h-4.44L88.62,15.51V32.22H84V7.75Z"/><path class="cls-1" d="M116.06,7.75V32.22h-4.68V7.75Z"/><path class="cls-1" d="M123.89,7.75,131.09,27l7.27-19.26h4.82L133.4,32.22h-4.86L118.86,7.75Z"/><path class="cls-1" d="M164,7.75v4.09H150.7v6h11.89V22H150.7v6.15h13.67v4.09H146V7.75Z"/><path class="cls-1" d="M184.16,32.22,179.93,25a7.05,7.05,0,0,1-.87,0h-5.52v7.2h-4.68V7.75h10.21c6.33,0,9.93,3,9.93,8.42,0,3.85-1.71,6.61-4.86,7.94l5.38,8.11ZM173.53,20.9h5.52c3.5,0,5.45-1.5,5.45-4.58s-2-4.47-5.45-4.47h-5.52Z"/><path class="cls-1" d="M218,20c0,7-5.66,12.44-13,12.44s-13-5.42-13-12.44,5.66-12.38,13-12.38S218,13,218,20ZM196.7,20A8.3,8.3,0,0,0,205,28.24,8.22,8.22,0,1,0,196.7,20Z"/><path class="cls-1" d="M34.69,8.2A92.72,92.72,0,0,0,21,22.79a79.19,79.19,0,0,0-9.48,15.43c-.88,1.92-1.54,3.56-2,4.73.58-1,1.43-2.54,2.49-4.33a148.58,148.58,0,0,1,9.9-15.34A123.71,123.71,0,0,1,35,8.78c2.12-2,4.77-4.38,4.68-4.48A49,49,0,0,0,34.69,8.2Z"/><path class="cls-1" d="M47.06,1.2c-2.18-2.95-10.92.46-11.41.66a22.07,22.07,0,0,0-3,1.47h-27V28.63A15.17,15.17,0,0,0,8.88,38a46.9,46.9,0,0,1,1.37-6.38c.39-1.31.77-2.36,1-3a5.57,5.57,0,0,0,2.46,3.53,23.54,23.54,0,0,1-1.39-5.59A48.29,48.29,0,0,1,18,16.77a51.13,51.13,0,0,1,8.3-8.68A11.58,11.58,0,0,0,25.26,13a18.68,18.68,0,0,1,1.66-3A21.61,21.61,0,0,1,35,3.15a23.44,23.44,0,0,1,2.84-1.2l-1.39,1.9A8.67,8.67,0,0,1,40.1,1.57c1.54-.49,4.91-1.08,6.05.28,1.76,2.12-1.85,9-7.44,10.86a10,10,0,0,1-1.25.34,6.93,6.93,0,0,0,1.82-.14A6.72,6.72,0,0,0,41,12.28c-.61.73-2.09,2.19-3.39,3.44V28.63A16.68,16.68,0,0,1,11.73,42.5C9.92,44.4,8.48,46,7.5,47.17c.26-1.84.48-3.37.65-4.47s.31-2,.44-2.9A16.57,16.57,0,0,1,4.27,28.63V3.32H0V28.63A21,21,0,0,0,6.9,44.15l.13.11-.67,5.29,3.41-3.23a20.3,20.3,0,0,0,11,3.23A21,21,0,0,0,41.9,28.63q0-8.25,0-16.51A12.88,12.88,0,0,0,45.82,8C46.26,7.28,48.56,3.22,47.06,1.2Z"/><path class="cls-1" d="M21.17,33.58c-2.9,3-5.75,5.62-8.45,7.91A15.29,15.29,0,0,0,36.24,28.63V17l-.34.32a41.35,41.35,0,0,1-12.49,7,18.56,18.56,0,0,0,6.77-1.23A117.48,117.48,0,0,1,21.17,33.58Z"/></g></g></svg>